# xmcd CD database file
# Copyright (C) 1993-1996 Ti Kan
#
# Track frame offsets:
#	150
#	21102
#	42785
#	62695
#	80887
#	102045
#	131265
#	151892
#
# Disc length: 2310 seconds
#
# Revision: 1
# Processed by: cddbd v1.4b41PL1 Copyright (c) Steve Scherf et al.
# Submitted via: CDValet v3.31 - Copyright (c) 1997 Greg Leichner
#
DISCID=59090408
DTITLE=Chris Jasper - Superbad
DYEAR=1900
DGENRE=
TTITLE0=Superbad
TTITLE1=Givin' My All
TTITLE2=One Time Love 
TTITLE3=Earthquake
TTITLE4=Like I Do
TTITLE5=Dance For The Dollar
TTITLE6=The Son Of Man
TTITLE7=My Soul Train
EXTD=
EXTT0=
EXTT1=
EXTT2=
EXTT3=
EXTT4=
EXTT5=
EXTT6=
EXTT7=
PLAYORDER=
